<svg width="155" height="52" viewBox="0 0 155 52" fill="none" xmlns="http://www.w3.org/2000/svg">
<g clip-path="url(#clip0_4921_17147)">
<path d="M142.127 3.93003e-05H12.3043C11.8311 3.93003e-05 11.3636 3.93004e-05 10.8916 0.0026393C10.4965 0.0052393 10.1046 0.0127923 9.70571 0.0191493C8.83917 0.0294216 7.97467 0.106218 7.11971 0.248872C6.26596 0.394632 5.43896 0.66943 4.66666 1.06397C3.89532 1.46185 3.19051 1.97886 2.57783 2.59623C1.96192 3.21187 1.44852 3.92346 1.05736 4.70365C0.665114 5.48228 0.393133 6.31666 0.250805 7.17796C0.107124 8.03818 0.029808 8.90832 0.0195508 9.78056C0.00757513 10.1791 0.00631045 10.579 0 10.9777V41.0262C0.00631045 41.4299 0.00757513 41.8209 0.0195508 42.2247C0.0298112 43.0969 0.107127 43.967 0.250805 44.8272C0.39274 45.689 0.664737 46.5238 1.05736 47.3027C1.44834 48.0804 1.96182 48.7891 2.57783 49.4013C3.18819 50.0215 3.89345 50.5388 4.66666 50.9336C5.43895 51.3292 6.26587 51.6057 7.11971 51.7537C7.97481 51.8952 8.83922 51.972 9.70571 51.9835C10.1046 51.9924 10.4965 51.9974 10.8916 51.9974C11.3636 52 11.8311 52 12.3043 52H142.127C142.591 52 143.062 52 143.526 51.9974C143.919 51.9974 144.322 51.9924 144.715 51.9835C145.58 51.9726 146.443 51.8958 147.296 51.7537C148.153 51.6046 148.983 51.3283 149.759 50.9336C150.531 50.5386 151.236 50.0212 151.846 49.4013C152.46 48.7867 152.975 48.0785 153.371 47.3027C153.76 46.5233 154.03 45.6885 154.17 44.8272C154.314 43.9669 154.394 43.097 154.409 42.2247C154.414 41.8209 154.414 41.4299 154.414 41.0262C154.424 40.5539 154.424 40.0842 154.424 39.6043V12.397C154.424 11.9209 154.424 11.4487 154.414 10.9777C154.414 10.579 154.414 10.1791 154.409 9.78051C154.394 8.90819 154.314 8.03825 154.17 7.17791C154.029 6.31711 153.76 5.48279 153.371 4.7036C152.574 3.13979 151.311 1.86687 149.759 1.06386C148.983 0.670277 148.153 0.395552 147.296 0.248755C146.443 0.105473 145.58 0.0286494 144.715 0.0189673C144.322 0.0126233 143.919 0.0050053 143.526 0.0024703C143.062 -0.0001297 142.591 -0.0001297 142.127 -0.0001297V3.93003e-05Z" fill="#A6A6A6"/>
<path d="M10.8978 50.8625C10.5046 50.8625 10.1209 50.8574 9.73079 50.8486C8.92267 50.838 8.11643 50.7671 7.3187 50.6366C6.57485 50.5075 5.85426 50.2674 5.18071 49.9243C4.51332 49.584 3.90462 49.1378 3.3779 48.6027C2.84357 48.074 2.39871 47.4607 2.06095 46.7873C1.71948 46.1094 1.48316 45.3829 1.36022 44.6329C1.22746 43.827 1.15564 43.0122 1.14536 42.1954C1.13718 41.9212 1.12646 41.0084 1.12646 41.0084V10.9776C1.12646 10.9776 1.13787 10.0788 1.14542 9.81474C1.15526 8.99922 1.22667 8.18565 1.35904 7.38105C1.4822 6.62902 1.7187 5.90037 2.06036 5.22032C2.39687 4.54732 2.83926 3.93362 3.37038 3.40298C3.9009 2.8673 4.51155 2.41878 5.18007 2.07377C5.85208 1.73172 6.57131 1.49335 7.31365 1.36665C8.114 1.23478 8.92304 1.16349 9.73396 1.15337L10.8984 1.1375H143.519L144.698 1.15401C145.501 1.16363 146.303 1.23428 147.096 1.36537C147.846 1.49366 148.572 1.7337 149.252 2.07758C150.591 2.77288 151.681 3.87291 152.369 5.22349C152.705 5.89885 152.938 6.62156 153.059 7.36708C153.193 8.17829 153.268 8.99826 153.284 9.82046C153.287 10.1886 153.287 10.5841 153.287 10.9776C153.298 11.4651 153.298 11.9291 153.298 12.397V39.6042C153.298 40.0765 153.298 40.5374 153.287 41.002C153.287 41.4248 153.287 41.812 153.282 42.2106C153.267 43.0181 153.194 43.8235 153.062 44.6202C152.941 45.3755 152.706 46.1078 152.365 46.7912C152.025 47.4573 151.582 48.0652 151.054 48.5926C150.527 49.1305 149.917 49.5793 149.248 49.9218C148.571 50.2676 147.845 50.5086 147.096 50.6366C146.298 50.7678 145.492 50.8387 144.684 50.8486C144.306 50.8574 143.91 50.8625 143.526 50.8625L142.127 50.8651L10.8978 50.8625Z" fill="black"/>
<path d="M31.9638 26.3909C31.9777 25.3058 32.2638 24.2419 32.7955 23.2982C33.3272 22.3545 34.0873 21.5615 35.0049 20.9932C34.422 20.1545 33.6529 19.4643 32.7588 18.9774C31.8647 18.4904 30.8703 18.2202 29.8544 18.1882C27.6874 17.9591 25.5865 19.4945 24.4823 19.4945C23.3566 19.4945 21.6564 18.211 19.8256 18.2489C18.6413 18.2875 17.4872 18.6344 16.4756 19.2558C15.464 19.8773 14.6295 20.7522 14.0533 21.7951C11.5575 26.1481 13.4192 32.5455 15.8099 36.0641C17.0061 37.787 18.404 39.7116 20.2332 39.6433C22.0232 39.5686 22.6917 38.4935 24.8524 38.4935C26.993 38.4935 27.6202 39.6433 29.4865 39.6C31.4072 39.5685 32.6174 37.8693 33.7716 36.1301C34.631 34.9024 35.2923 33.5456 35.731 32.1098C34.6152 31.6344 33.6629 30.8385 32.993 29.8215C32.323 28.8046 31.9651 27.6114 31.9638 26.3909Z" fill="white"/>
<path d="M28.4386 15.8742C29.4859 14.6077 30.0019 12.9799 29.8769 11.3363C28.2769 11.5056 26.799 12.276 25.7376 13.4938C25.2186 14.0888 24.8212 14.781 24.5679 15.5308C24.3147 16.2806 24.2106 17.0733 24.2617 17.8636C25.0619 17.872 25.8536 17.6972 26.5772 17.3526C27.3007 17.008 27.9372 16.5025 28.4386 15.8742Z" fill="white"/>
<path d="M54.5903 35.2815H48.4819L47.015 39.6449H44.4277L50.2135 23.5015H52.9016L58.6873 39.6449H56.0559L54.5903 35.2815ZM49.1145 33.2681H53.9564L51.5695 26.1866H51.5027L49.1145 33.2681Z" fill="white"/>
<path d="M71.1824 33.7607C71.1824 37.4182 69.2392 39.7681 66.3066 39.7681C65.5637 39.8072 64.8249 39.6348 64.1748 39.2707C63.5246 38.9065 62.9894 38.3652 62.6305 37.7089H62.575V43.5386H60.1768V27.8751H62.4982V29.8327H62.5423C62.9177 29.1795 63.462 28.6411 64.1171 28.2747C64.7721 27.9083 65.5136 27.7276 66.2625 27.7519C69.2278 27.752 71.1824 30.1133 71.1824 33.7607ZM68.7174 33.7607C68.7174 31.3778 67.495 29.8111 65.6298 29.8111C63.7974 29.8111 62.5649 31.4107 62.5649 33.7607C62.5649 36.1321 63.7974 37.7203 65.6298 37.7203C67.495 37.7203 68.7174 36.1651 68.7174 33.7607Z" fill="white"/>
<path d="M84.0418 33.7606C84.0418 37.4182 82.0985 39.7681 79.166 39.7681C78.4231 39.8072 77.6843 39.6348 77.0342 39.2706C76.384 38.9065 75.8488 38.3652 75.4899 37.7089H75.4344V43.5386H73.0361V27.8751H75.3575V29.8327H75.4016C75.7771 29.1795 76.3213 28.6411 76.9764 28.2747C77.6315 27.9083 78.3729 27.7276 79.1218 27.752C82.0872 27.752 84.0418 30.1133 84.0418 33.7606ZM81.5768 33.7606C81.5768 31.3777 80.3543 29.8111 78.4892 29.8111C76.6568 29.8111 75.4243 31.4107 75.4243 33.7606C75.4243 36.1321 76.6568 37.7203 78.4892 37.7203C80.3544 37.7203 81.5768 36.1651 81.5768 33.7606H81.5768Z" fill="white"/>
<path d="M92.5409 35.147C92.7186 36.7479 94.2624 37.799 96.372 37.799C98.3935 37.799 99.8478 36.7478 99.8478 35.3043C99.8478 34.0513 98.9706 33.301 96.8938 32.7869L94.8169 32.2828C91.8743 31.5668 90.5082 30.1805 90.5082 27.9309C90.5082 25.1455 92.9177 23.2324 96.3393 23.2324C99.7255 23.2324 102.047 25.1455 102.125 27.9309H99.7041C99.5591 26.3199 98.2372 25.3474 96.3052 25.3474C94.3733 25.3474 93.0513 26.3313 93.0513 27.7633C93.0513 28.9046 93.8956 29.5762 95.9612 30.0903L97.7267 30.527C101.015 31.3103 102.381 32.6408 102.381 35.0021C102.381 38.0224 99.9927 39.914 96.1943 39.914C92.6404 39.914 90.241 38.0668 90.0859 35.1469L92.5409 35.147Z" fill="white"/>
<path d="M107.557 25.0897V27.8751H109.778V29.7883H107.557V36.2769C107.557 37.2849 108.001 37.7546 108.978 37.7546C109.242 37.75 109.505 37.7313 109.767 37.6987V39.6004C109.328 39.6831 108.882 39.7205 108.435 39.7122C106.07 39.7122 105.147 38.8171 105.147 36.5345V29.7883H103.448V27.8751H105.147V25.0897H107.557Z" fill="white"/>
<path d="M111.065 33.7606C111.065 30.0574 113.231 27.7304 116.607 27.7304C119.994 27.7304 122.149 30.0574 122.149 33.7606C122.149 37.474 120.006 39.7909 116.607 39.7909C113.209 39.7909 111.065 37.474 111.065 33.7606ZM119.706 33.7606C119.706 31.2203 118.55 29.721 116.607 29.721C114.663 29.721 113.509 31.2317 113.509 33.7606C113.509 36.3111 114.663 37.799 116.607 37.799C118.55 37.799 119.706 36.3111 119.706 33.7606H119.706Z" fill="white"/>
<path d="M124.126 27.8751H126.414V29.8784H126.469C126.624 29.2527 126.988 28.6998 127.5 28.3125C128.011 27.9253 128.64 27.7273 129.28 27.7519C129.556 27.751 129.832 27.7812 130.101 27.8421V30.1018C129.752 29.9944 129.388 29.9451 129.024 29.9558C128.675 29.9416 128.328 30.0035 128.006 30.1372C127.683 30.271 127.393 30.4734 127.156 30.7307C126.918 30.988 126.739 31.2939 126.63 31.6276C126.521 31.9613 126.485 32.3147 126.525 32.6637V39.6449H124.126L124.126 27.8751Z" fill="white"/>
<path d="M141.158 36.188C140.836 38.3246 138.77 39.7909 136.128 39.7909C132.729 39.7909 130.619 37.4969 130.619 33.8165C130.619 30.1247 132.74 27.7304 136.027 27.7304C139.259 27.7304 141.292 29.9673 141.292 33.5359V34.3637H133.04V34.5097C133.002 34.9428 133.056 35.3792 133.198 35.7898C133.34 36.2004 133.567 36.5758 133.865 36.8911C134.162 37.2064 134.522 37.4544 134.922 37.6186C135.322 37.7828 135.752 37.8594 136.183 37.8434C136.75 37.8969 137.319 37.7647 137.805 37.4664C138.291 37.1682 138.668 36.7198 138.881 36.188L141.158 36.188ZM133.051 32.6752H138.893C138.914 32.2857 138.856 31.896 138.72 31.5304C138.585 31.1648 138.377 30.8313 138.108 30.5508C137.839 30.2703 137.515 30.0489 137.157 29.9004C136.799 29.7519 136.414 29.6796 136.027 29.688C135.636 29.6856 135.249 29.7612 134.888 29.9104C134.526 30.0596 134.198 30.2793 133.921 30.5571C133.645 30.8348 133.425 31.1649 133.276 31.5285C133.127 31.892 133.05 32.2818 133.051 32.6752V32.6752Z" fill="white"/>
<path d="M48.814 11.3503C49.3168 11.314 49.8214 11.3905 50.2912 11.5743C50.7611 11.7582 51.1846 12.0448 51.5312 12.4135C51.8779 12.7822 52.1389 13.2239 52.2956 13.7065C52.4522 14.1892 52.5006 14.7008 52.4372 15.2046C52.4372 17.6827 51.1077 19.1072 48.814 19.1072H46.0327V11.3503H48.814ZM47.2287 18.0102H48.6805C49.0397 18.0318 49.3993 17.9725 49.7329 17.8365C50.0666 17.7005 50.3659 17.4913 50.6091 17.224C50.8524 16.9568 51.0334 16.6383 51.1391 16.2917C51.2447 15.9451 51.2723 15.5791 51.2198 15.2204C51.2685 14.8631 51.2381 14.4994 51.1308 14.1554C51.0236 13.8113 50.8421 13.4954 50.5994 13.2303C50.3567 12.9652 50.0588 12.7574 49.7271 12.6219C49.3953 12.4864 49.0379 12.4265 48.6805 12.4465H47.2287V18.0102Z" fill="white"/>
<path d="M53.7884 16.1776C53.7518 15.7929 53.7955 15.4048 53.9166 15.0381C54.0377 14.6714 54.2335 14.3343 54.4916 14.0483C54.7496 13.7623 55.0641 13.5338 55.4149 13.3775C55.7657 13.2211 56.1451 13.1404 56.5287 13.1404C56.9124 13.1404 57.2917 13.2211 57.6426 13.3775C57.9934 13.5338 58.3079 13.7623 58.5659 14.0483C58.8239 14.3343 59.0198 14.6714 59.1409 15.0381C59.262 15.4048 59.3057 15.7929 59.2691 16.1776C59.3063 16.5627 59.2632 16.9514 59.1424 17.3187C59.0216 17.686 58.8259 18.0237 58.5678 18.3103C58.3097 18.5968 57.995 18.8258 57.6438 18.9825C57.2926 19.1392 56.9128 19.2201 56.5287 19.2201C56.1447 19.2201 55.7648 19.1392 55.4137 18.9825C55.0625 18.8258 54.7477 18.5968 54.4897 18.3103C54.2316 18.0237 54.0359 17.686 53.9151 17.3187C53.7943 16.9514 53.7511 16.5627 53.7884 16.1776ZM58.0895 16.1776C58.0895 14.9088 57.5237 14.1667 56.5306 14.1667C55.5338 14.1667 54.973 14.9088 54.973 16.1777C54.973 17.4567 55.5338 18.193 56.5306 18.193C57.5237 18.193 58.0895 17.4516 58.0895 16.1776H58.0895Z" fill="white"/>
<path d="M66.5546 19.1071H65.365L64.164 14.7957H64.0732L62.8773 19.1071H61.6989L60.0972 13.2533H61.2604L62.3013 17.7201H62.387L63.5817 13.2533H64.6819L65.8766 17.7201H65.9673L67.0033 13.2533H68.1501L66.5546 19.1071Z" fill="white"/>
<path d="M69.4971 13.2533H70.601V14.1832H70.6867C70.8321 13.8492 71.0773 13.5692 71.3882 13.3823C71.699 13.1953 72.06 13.1107 72.4208 13.1403C72.7036 13.1189 72.9875 13.1618 73.2515 13.2659C73.5155 13.37 73.7529 13.5327 73.9461 13.7418C74.1392 13.9509 74.2832 14.2011 74.3674 14.4738C74.4515 14.7466 74.4737 15.035 74.4322 15.3175V19.107H73.2853V15.6076C73.2853 14.6669 72.8796 14.1991 72.0314 14.1991C71.8394 14.1901 71.6478 14.223 71.4696 14.2956C71.2915 14.3681 71.131 14.4787 70.9992 14.6196C70.8674 14.7605 70.7674 14.9284 70.7061 15.1119C70.6448 15.2953 70.6235 15.49 70.6439 15.6825V19.1071H69.4971L69.4971 13.2533Z" fill="white"/>
<path d="M76.2593 10.9681H77.4061V19.1071H76.2593V10.9681Z" fill="white"/>
<path d="M79.0002 16.1776C78.9637 15.7929 79.0074 15.4048 79.1286 15.0381C79.2497 14.6714 79.4456 14.3342 79.7036 14.0482C79.9617 13.7622 80.2762 13.5337 80.627 13.3774C80.9779 13.221 81.3573 13.1402 81.7409 13.1402C82.1246 13.1402 82.504 13.221 82.8548 13.3774C83.2057 13.5337 83.5202 13.7622 83.7783 14.0482C84.0363 14.3342 84.2322 14.6714 84.3533 15.0381C84.4744 15.4048 84.5181 15.7929 84.4816 16.1776C84.5188 16.5627 84.4756 16.9514 84.3548 17.3187C84.234 17.686 84.0382 18.0237 83.7801 18.3103C83.522 18.5968 83.2072 18.8258 82.856 18.9825C82.5049 19.1391 82.125 19.2201 81.7409 19.2201C81.3569 19.2201 80.977 19.1391 80.6258 18.9825C80.2746 18.8258 79.9599 18.5968 79.7018 18.3103C79.4437 18.0237 79.2479 17.686 79.1271 17.3187C79.0063 16.9514 78.9631 16.5627 79.0002 16.1776ZM83.3014 16.1776C83.3014 14.9088 82.7356 14.1667 81.7425 14.1667C80.7457 14.1667 80.1849 14.9088 80.1849 16.1777C80.1849 17.4567 80.7457 18.193 81.7425 18.193C82.7356 18.193 83.3014 17.4516 83.3014 16.1776H83.3014Z" fill="white"/>
<path d="M85.689 17.4516C85.689 16.3979 86.4678 15.7904 87.8503 15.7041L89.4243 15.6127V15.1074C89.4243 14.4892 89.0185 14.14 88.2346 14.14C87.5944 14.14 87.1508 14.3768 87.0236 14.7907H85.9133C86.0305 13.7852 86.9694 13.1403 88.2876 13.1403C89.7444 13.1403 90.5661 13.8709 90.5661 15.1074V19.1071H89.4621V18.2844H89.3714C89.1872 18.5795 88.9286 18.8201 88.6219 18.9816C88.3153 19.143 87.9716 19.2196 87.6259 19.2035C87.382 19.2291 87.1354 19.2029 86.9022 19.1266C86.6689 19.0503 86.4541 18.9256 86.2716 18.7605C86.0891 18.5954 85.943 18.3937 85.8426 18.1682C85.7423 17.9428 85.6899 17.6987 85.689 17.4516ZM89.4243 16.9514V16.462L88.0053 16.5534C87.205 16.6074 86.8421 16.8816 86.8421 17.3977C86.8421 17.9245 87.2958 18.2311 87.9196 18.2311C88.1024 18.2497 88.2871 18.2311 88.4626 18.1764C88.6381 18.1217 88.8009 18.032 88.9413 17.9126C89.0816 17.7932 89.1968 17.6466 89.2797 17.4815C89.3627 17.3163 89.4119 17.1361 89.4243 16.9514Z" fill="white"/>
<path d="M92.0737 16.1776C92.0737 14.3279 93.0177 13.1562 94.4858 13.1562C94.849 13.1393 95.2094 13.2269 95.525 13.4088C95.8405 13.5907 96.0982 13.8592 96.2678 14.1832H96.3535V10.9681H97.5003V19.1071H96.4014V18.1822H96.3107C96.1279 18.5039 95.8613 18.7692 95.5396 18.9492C95.218 19.1292 94.8535 19.2172 94.4858 19.2035C93.0076 19.2036 92.0737 18.0318 92.0737 16.1776ZM93.2584 16.1776C93.2584 17.4192 93.8394 18.1664 94.811 18.1664C95.7776 18.1664 96.375 17.4085 96.375 16.1827C96.375 14.9627 95.7713 14.194 94.811 14.194C93.8456 14.194 93.2584 14.9462 93.2584 16.1776H93.2584Z" fill="white"/>
<path d="M102.245 16.1776C102.208 15.7929 102.252 15.4048 102.373 15.0381C102.494 14.6714 102.69 14.3343 102.948 14.0483C103.206 13.7623 103.521 13.5338 103.871 13.3775C104.222 13.2211 104.602 13.1404 104.985 13.1404C105.369 13.1404 105.748 13.2211 106.099 13.3775C106.45 13.5338 106.764 13.7623 107.022 14.0483C107.28 14.3343 107.476 14.6714 107.597 15.0381C107.719 15.4048 107.762 15.7929 107.726 16.1776C107.763 16.5627 107.72 16.9514 107.599 17.3187C107.478 17.686 107.282 18.0237 107.024 18.3103C106.766 18.5968 106.452 18.8258 106.1 18.9825C105.749 19.1392 105.369 19.2201 104.985 19.2201C104.601 19.2201 104.221 19.1392 103.87 18.9825C103.519 18.8258 103.204 18.5968 102.946 18.3103C102.688 18.0237 102.492 17.686 102.372 17.3187C102.251 16.9514 102.208 16.5627 102.245 16.1776ZM106.546 16.1776C106.546 14.9088 105.98 14.1667 104.987 14.1667C103.99 14.1667 103.43 14.9088 103.43 16.1777C103.43 17.4567 103.99 18.193 104.987 18.193C105.98 18.193 106.546 17.4516 106.546 16.1776Z" fill="white"/>
<path d="M109.264 13.2533H110.368V14.1832H110.454C110.599 13.8492 110.844 13.5692 111.155 13.3823C111.466 13.1953 111.827 13.1107 112.188 13.1403C112.471 13.1189 112.755 13.1618 113.019 13.2659C113.283 13.37 113.52 13.5327 113.713 13.7418C113.906 13.9509 114.05 14.2011 114.134 14.4738C114.219 14.7466 114.241 15.035 114.199 15.3175V19.107H113.052V15.6076C113.052 14.6669 112.647 14.1991 111.799 14.1991C111.607 14.1901 111.415 14.223 111.237 14.2956C111.059 14.3681 110.898 14.4787 110.766 14.6196C110.635 14.7605 110.535 14.9284 110.473 15.1119C110.412 15.2953 110.391 15.49 110.411 15.6825V19.1071H109.264V13.2533Z" fill="white"/>
<path d="M120.679 11.7959V13.2799H121.938V14.253H120.679V17.2631C120.679 17.8763 120.93 18.1448 121.501 18.1448C121.647 18.1443 121.793 18.1354 121.938 18.1181V19.0804C121.732 19.1175 121.524 19.1373 121.315 19.1394C120.039 19.1394 119.531 18.6875 119.531 17.5589V14.253H118.609V13.2799H119.531V11.7959H120.679Z" fill="white"/>
<path d="M123.505 10.9681H124.642V14.194H124.732C124.885 13.8569 125.137 13.5753 125.454 13.3876C125.771 13.2 126.138 13.1154 126.504 13.1454C126.785 13.1299 127.067 13.1772 127.328 13.2839C127.589 13.3906 127.823 13.5539 128.014 13.7624C128.205 13.9708 128.349 14.2192 128.433 14.4897C128.518 14.7603 128.543 15.0464 128.505 15.3277V19.1071H127.357V15.6127C127.357 14.6777 126.925 14.2041 126.115 14.2041C125.918 14.1878 125.72 14.2151 125.534 14.2841C125.348 14.3531 125.18 14.4621 125.041 14.6034C124.901 14.7448 124.794 14.9151 124.727 15.1025C124.66 15.2899 124.634 15.4898 124.652 15.6882V19.1071H123.505L123.505 10.9681Z" fill="white"/>
<path d="M135.192 17.5265C135.037 18.0615 134.699 18.5243 134.239 18.8339C133.778 19.1435 133.225 19.2802 132.674 19.2201C132.292 19.2302 131.911 19.1564 131.559 19.0036C131.208 18.8508 130.893 18.6227 130.638 18.3353C130.383 18.0478 130.192 17.7078 130.08 17.3388C129.969 16.9698 129.938 16.5808 129.99 16.1986C129.939 15.8152 129.971 15.4253 130.082 15.0552C130.194 14.6852 130.383 14.3436 130.637 14.0536C130.891 13.7636 131.204 13.532 131.555 13.3744C131.905 13.2168 132.285 13.137 132.669 13.1403C134.286 13.1403 135.262 14.2531 135.262 16.0913V16.4944H131.158V16.5591C131.14 16.774 131.167 16.9902 131.237 17.194C131.307 17.3977 131.418 17.5846 131.564 17.7425C131.71 17.9003 131.886 18.0258 132.083 18.1108C132.28 18.1959 132.492 18.2385 132.706 18.2361C132.98 18.2693 133.258 18.2196 133.504 18.0932C133.751 17.9668 133.954 17.7695 134.088 17.5265L135.192 17.5265ZM131.158 15.64H134.093C134.108 15.4435 134.081 15.2462 134.016 15.0606C133.95 14.8751 133.846 14.7055 133.712 14.5627C133.577 14.4199 133.414 14.307 133.233 14.2314C133.053 14.1558 132.859 14.119 132.663 14.1235C132.465 14.121 132.268 14.1585 132.084 14.2339C131.9 14.3092 131.734 14.4208 131.593 14.5621C131.453 14.7035 131.342 14.8716 131.268 15.0568C131.193 15.2419 131.156 15.4402 131.158 15.64H131.158Z" fill="white"/>
</g>
<defs>
<clipPath id="clip0_4921_17147">
<rect width="154.424" height="52" fill="white"/>
</clipPath>
</defs>
</svg>
