<svg width="37" height="33" viewBox="0 0 37 33" fill="none" xmlns="http://www.w3.org/2000/svg">
<path d="M1.27307 20.7978L4.6216 8.07343V6.06415L7.97013 4.05503L11.9884 5.39444L13.9975 3.38532L17.346 2.04591H20.6945L24.7128 2.71562L26.0522 5.39444L28.0613 8.07343H32.0795L35.4281 10.0824L34.7584 14.1006L33.4189 28.1644L28.731 30.8433L5.96101 26.825L2.61248 24.8159L1.27307 20.7978Z" fill="#E7D3FF"/>
<path d="M31.9761 6.55462L28.4796 5.98996L27.6331 4.15616C26.8175 2.3713 25.1576 1.1101 23.2124 0.797439L19.4109 0.183527C17.4661 -0.132058 15.4937 0.542574 14.1577 1.97998L12.777 3.45409L9.28047 2.88943C7.77549 2.64638 6.23636 3.00785 5.0014 3.89392C3.76658 4.78031 2.93699 6.11877 2.69532 7.61523L0.417428 21.7204C0.175789 23.2166 0.541922 24.7482 1.43494 25.9782C2.32822 27.2082 3.67537 28.0355 5.18029 28.2785L27.876 31.9438C29.381 32.1868 30.9201 31.8256 32.1551 30.9393C33.3899 30.0529 34.2195 28.7144 34.4611 27.2182L36.739 13.1131C36.9807 11.6165 36.6145 10.085 35.7215 8.85502C34.8282 7.62522 33.481 6.79766 31.9761 6.55462ZM31.6241 26.76C31.5033 27.508 31.0886 28.1772 30.4711 28.6204C29.8536 29.0636 29.084 29.2442 28.3315 29.1227L5.63582 25.4574C4.88332 25.3359 4.20978 24.9223 3.76311 24.3072C3.31643 23.6922 3.13354 22.9265 3.25434 22.1784L5.53223 8.07331C5.65307 7.32505 6.06775 6.65583 6.68527 6.21262C7.30279 5.76942 8.07235 5.58886 8.82484 5.71038L13.8392 6.52016L16.26 3.92231C16.9468 3.1872 17.9583 2.84276 18.9553 3.00454L22.7567 3.61846C23.754 3.77875 24.6056 4.42409 25.0261 5.33797L26.5061 8.56579L31.5205 9.37558C32.273 9.4971 32.9465 9.91076 33.3932 10.5258C33.8399 11.1408 34.0227 11.9066 33.9019 12.6548L31.6241 26.76Z" fill="black"/>
<path d="M10.9781 10.4003C10.8523 11.1793 10.1152 11.7081 9.33177 11.5816C8.54838 11.4551 8.01538 10.7212 8.14118 9.94218C8.26699 9.16319 9.00391 8.63434 9.78731 8.76085C10.5707 8.88736 11.1039 9.62134 10.9781 10.4003Z" fill="black"/>
<path d="M19.7168 10.3643C17.8359 10.0605 15.9119 10.512 14.3682 11.6198C12.8246 12.7276 11.7876 14.4008 11.4855 16.2715C11.1834 18.1418 11.641 20.0564 12.7575 21.5938C13.874 23.1312 15.558 24.1656 17.4389 24.4694C19.3199 24.7732 21.2439 24.3214 22.7876 23.2136C24.3312 22.1058 25.3682 20.4326 25.6703 18.5622C25.9724 16.6916 25.5148 14.777 24.3983 13.2396C23.2818 11.7022 21.5978 10.668 19.7168 10.3643ZM17.8945 21.6484C16.7658 21.4661 15.7556 20.8454 15.0857 19.923C14.4157 19.0005 14.1412 17.8518 14.3224 16.7296C14.5037 15.6073 15.1257 14.6032 16.0522 13.9386C16.9783 13.2739 18.1325 13.0028 19.2613 13.185C20.3901 13.3673 21.4002 13.988 22.0701 14.9105C22.7401 15.8329 23.0146 16.9816 22.8333 18.1041C22.6521 19.2262 22.0301 20.2302 21.1036 20.8948C20.1775 21.5595 19.0233 21.8307 17.8945 21.6484Z" fill="black"/>
</svg>
