<svg width="46" height="35" viewBox="0 0 46 35" fill="none" xmlns="http://www.w3.org/2000/svg">
<g clip-path="url(#clip0_4921_17133)">
<path d="M3.88417 31.1635L3.21446 15.7603L5.22423 13.7512L9.91217 13.7512L9.24247 7.72384L11.2516 3.70561L15.9395 2.3662L31.3427 2.3662L32.6822 4.37531L30.0033 6.38443L15.2698 7.05414L15.2698 11.0724L15.9395 13.7512L27.9942 13.0815L30.0033 15.0906L30.673 18.4391L38.0398 17.7694L42.7277 13.0815L44.0672 31.1635L38.0398 26.4756L31.3427 27.815L31.3427 30.4938L27.9942 31.8332L5.22423 33.1727L3.88417 31.1635Z" fill="#D3FFF7"/>
<path d="M42.1669 12.1181L37.2598 16.6207L31.4359 16.9374L31.3654 15.643C31.242 13.376 29.2624 11.6337 26.9514 11.7595L16.2987 12.3398L16.0814 8.34778L30.3702 7.56989C32.26 7.46701 33.7165 5.87324 33.6155 4.01791C33.5146 2.16292 31.894 0.736317 30.0038 0.83922L14.0007 1.71043C10.8507 1.88192 8.42366 4.53833 8.59199 7.63026L8.87038 12.7438L5.73661 12.9144C3.42558 13.0402 1.64679 14.9871 1.77021 17.2542L2.51176 30.8755C2.63525 33.1439 4.61488 34.8861 6.92591 34.7603L28.1415 33.6053C30.4525 33.4795 32.2313 31.5327 32.1078 29.2642L32.0373 27.9699L37.8613 27.6528L43.2281 31.5961C43.9987 32.1617 45.1098 31.5903 45.0577 30.6336L44.091 12.8761C44.0389 11.9198 42.8716 11.4714 42.1669 12.1181ZM10.8774 7.50593C10.7764 5.65095 12.2325 4.05684 14.1227 3.95394L30.1248 3.08278C31.6309 3.00079 31.7591 5.24387 30.247 5.32619L14.8162 6.16659C14.1852 6.20094 13.7006 6.73133 13.7343 7.35074L14.0127 12.4643L11.1557 12.6199L10.8774 7.50593ZM29.8221 29.3886C29.8782 30.4197 29.0696 31.3047 28.0192 31.3619L6.8045 32.5168C5.75401 32.574 4.85416 31.782 4.79802 30.7509L4.05648 17.1297C4.00044 16.1003 4.80898 15.215 5.85947 15.1578L27.075 14.0028C28.1255 13.9456 29.0254 14.7376 29.0814 15.7673L29.8221 29.3886ZM37.0116 25.4493L31.9151 25.7267L31.5587 19.1804L36.6553 18.903L37.0116 25.4493ZM42.6412 28.3555L39.3298 25.9226L38.9083 18.1803L41.936 15.4022L42.6412 28.3555Z" fill="black"/>
<path d="M17.3446 17.7045L6.94317 18.2708C5.43067 18.3531 5.5528 20.5966 7.06531 20.5142L17.4668 19.948C18.9793 19.8656 18.8575 17.6222 17.3446 17.7045Z" fill="black"/>
</g>
<defs>
<clipPath id="clip0_4921_17133">
<rect width="42.473" height="32.5626" fill="white" transform="translate(0.972656 2.39728) rotate(-3.11613)"/>
</clipPath>
</defs>
</svg>
