<svg width="42" height="43" viewBox="0 0 42 43" fill="none" xmlns="http://www.w3.org/2000/svg">
<path d="M23.0539 20.238L25.0327 5.91709L30.0258 7.85975L36.3715 8.17284L41.4689 8.00028C40.925 11.8608 39.5944 20.2059 38.6231 22.7025C37.4089 25.8231 34.9465 28.4581 34.7037 29.0822C34.4608 29.7064 30.6117 30.3646 29.1206 30.5031C27.6295 30.6415 25.3758 29.0461 23.9891 27.0693C22.8797 25.4879 22.9034 21.8562 23.0539 20.238Z" fill="#FFFBD3"/>
<path d="M5.11737 24.1186L1.76884 10.0548H7.12649L13.1538 8.04564L17.8418 6.03653C18.7347 9.83152 20.5206 18.0912 20.5206 20.77C20.5206 24.1186 19.1812 27.4671 19.1812 28.1368C19.1812 28.8065 15.8327 30.8156 14.4932 31.4853C13.1538 32.155 10.475 31.4853 8.4659 30.1459C6.8586 29.0744 5.56384 25.6812 5.11737 24.1186Z" fill="#FFFBD3"/>
<path fill-rule="evenodd" clip-rule="evenodd" d="M6.33565 2.19365L0.666016 3.73968L1.11379 8.25506C1.36032 10.7385 2.24126 15.9306 3.07272 19.7928C4.88808 28.2343 5.95718 31.3197 10.3108 31.9768C13.232 32.4176 14.2027 32.2807 15.0401 36.155C15.804 39.6891 15.7031 40.2608 14.2577 40.5732C13.3451 40.7705 12.9042 41.2642 13.2788 41.6702C14.1474 42.6123 20.0417 41.5278 21.3997 40.1044C22.2041 39.2621 21.4793 39.0361 19.7495 39.3994C17.6397 39.8431 17.4867 39.6663 16.6557 35.8217C15.8583 32.1327 15.9695 31.6518 17.9281 30.3404C21.2395 28.1238 21.976 23.3542 20.3653 14.0167C19.5962 9.55666 18.2195 4.91976 17.4319 3.14207C15.8239 -0.486799 16.0811 -0.464462 6.33565 2.19365ZM16.4496 3.63772C16.974 6.06376 16.9387 6.09175 11.0788 7.91268C3.96086 10.125 2.63359 9.9887 1.9823 6.9756L1.48369 4.66883L15.922 1.19645L16.4496 3.63772ZM7.80076 10.4709C9.35518 10.1473 12.1021 9.23919 13.9044 8.45384L17.1818 7.0247L18.2859 12.1331C19.8717 19.4696 19.7716 25.8459 18.0398 27.8043C16.0889 30.0101 11.9447 30.7978 9.4436 29.4392C7.23111 28.2369 4.94524 21.7605 3.34717 14.4063C2.56294 10.7978 2.04661 10.3493 3.41612 10.6811C4.27283 10.889 6.24635 10.7945 7.80076 10.4709ZM11.9531 14.066C12.104 14.7638 12.7716 15.2172 13.4366 15.0734C14.1017 14.9297 14.5225 14.2411 14.3716 13.5432C14.2208 12.8453 13.5532 12.392 12.8881 12.5357C12.223 12.6795 11.8023 13.3681 11.9531 14.066ZM7.37656 20.2199C7.75614 21.976 8.8357 22.3482 9.80018 21.056C11.0683 19.3573 10.605 18.3418 8.74515 18.7438C7.85837 18.9355 7.24253 19.5998 7.37656 20.2199ZM14.0656 22.0979C13.5402 23.6883 15.7577 24.9019 16.6179 23.4941C17.3372 22.3169 16.3651 20.6384 15.1196 20.9076C14.7286 20.9921 14.2545 21.5276 14.0656 22.0979Z" fill="black"/>
<path fill-rule="evenodd" clip-rule="evenodd" d="M31.5284 0.416915L25.664 0.0381165L24.6212 4.45421C24.048 6.88313 23.1952 12.0799 22.7275 16.0028C21.7033 24.5763 21.7126 27.8417 25.6169 29.8769C28.2367 31.2425 29.1992 31.4282 28.7332 35.3644C28.3081 38.9551 28.027 39.463 26.5585 39.2891C25.6313 39.1794 25.0539 39.5032 25.2765 40.0088C25.792 41.1819 31.7191 42.0702 33.4657 41.1649C34.5 40.6294 33.8879 40.1804 32.1339 39.9623C29.9943 39.6968 29.907 39.4799 30.3695 35.5738C30.8132 31.8258 31.0745 31.407 33.3528 30.8027C37.2045 29.7815 39.4499 25.5095 40.9586 16.155C41.6794 11.6869 41.883 6.85422 41.7153 4.91712C41.3729 0.96276 41.6088 1.06738 31.5284 0.416915ZM40.6254 5.06695C40.3336 7.53181 40.2911 7.54683 34.1574 7.36622C26.7068 7.14736 25.4957 6.58741 25.8581 3.52611L26.1356 1.18243L40.919 2.58663L40.6254 5.06695ZM30.2263 8.72135C31.8016 8.92004 34.6946 8.95316 36.6542 8.7956L40.218 8.50813L39.6035 13.6983C38.7211 21.1521 36.5559 27.1504 34.282 28.4403C31.7205 29.8931 27.5451 29.2924 25.6207 27.1953C23.9185 25.3397 23.8595 18.472 24.7361 10.9974C25.1662 7.32969 24.8234 6.7379 26.011 7.49637C26.7538 7.97124 28.6511 8.52266 30.2263 8.72135ZM32.9863 13.47C32.9023 14.179 33.3865 14.8246 34.0622 14.9046C34.738 14.9846 35.3595 14.4699 35.4434 13.7609C35.5274 13.0518 35.0432 12.4063 34.3675 12.3263C33.6918 12.2463 33.0702 12.7609 32.9863 13.47ZM26.6594 17.8043C26.4482 19.5885 27.3483 20.2911 28.6802 19.3821C30.4312 18.1872 30.3227 17.0763 28.4331 16.8526C27.5322 16.7459 26.734 17.1743 26.6594 17.8043ZM32.3761 21.7526C31.3628 23.0863 33.066 24.9542 34.3367 23.902C35.3993 23.0221 35.025 21.1189 33.7595 20.9691C33.3623 20.9221 32.74 21.2746 32.3761 21.7526Z" fill="black"/>
</svg>
