<svg width="48" height="47" viewBox="0 0 48 47" fill="none" xmlns="http://www.w3.org/2000/svg">
<path d="M22.3849 9.37589C27.2068 8.30437 30.6446 10.7153 31.7608 12.0547C32.4304 12.0547 34.4393 12.9923 37.1181 16.7426C40.4666 21.4305 36.4484 26.7882 35.7787 30.1367C35.109 33.4853 29.7513 36.1641 27.0725 36.8338C24.3937 37.5035 21.0455 36.8338 15.0181 33.4853C10.1962 30.8064 10.3302 23.4397 10.9999 20.0912C12.7858 16.9659 17.563 10.4474 22.3849 9.37589Z" fill="#EEFFD3"/>
<path d="M35.2977 15.0997C33.9131 15.0997 33.6217 15.7555 34.5447 16.8486C37.9941 20.9538 34.8362 30.8889 29.1521 33.7795C24.5367 36.1115 19.7271 35.0669 16.3749 32.3706C11.1766 28.1683 9.88916 21.1967 16.4721 14.6624C20.5772 10.5815 25.1926 10.0957 29.2735 12.9135C31.2411 14.2495 32.1641 14.3466 33.8402 13.375C36.3179 11.9175 32.7957 9.97423 28.3747 9.12404C13.9215 6.33056 3.76785 19.5206 12.6341 32.8564C17.1765 39.6822 31.6298 39.9252 35.9779 33.2451C41.0304 25.4962 40.6417 15.0997 35.2977 15.0997Z" fill="black"/>
<path d="M21.8648 27.9982C17.9297 26.8808 17.0066 28.7998 20.7717 30.1601C22.6178 30.816 22.9093 30.646 23.0794 31.9091C23.4194 34.6783 26.2615 34.0224 26.2615 31.1561C26.2615 30.5488 26.5287 30.2573 27.4275 29.9658C31.144 28.727 31.3384 23.6744 27.719 22.3384C26.7231 21.974 25.1927 21.9497 23.8567 21.7797C19.703 21.1967 21.8648 17.8202 24.1725 17.966C24.5125 17.9903 26.8687 18.2089 27.4031 18.2818C29.1278 18.3547 29.4437 17.8931 29.5408 17.383C29.6866 16.6786 27.8404 15.7798 26.2372 15.7798C25.3384 15.7798 25.2169 15.6583 25.2169 14.8324C25.2169 13.3021 23.7838 12.4519 22.9336 13.4964C22.7393 13.7393 22.545 14.2737 22.4721 14.711C22.3749 15.3183 21.9863 15.6341 20.6746 16.0713C16.4236 17.4802 15.6706 22.7513 22.9336 23.8444C24.9012 24.1359 27.2331 24.7918 27.0874 26.1035C26.8688 28.1683 23.0065 28.314 21.8648 27.9982Z" fill="black"/>
</svg>
