<svg width="48" height="47" viewBox="0 0 48 47" fill="none" xmlns="http://www.w3.org/2000/svg">
<path d="M8.19339 30.1368V13.3941L15.5601 12.0547H21.5875L32.3028 16.0729H40.3392V34.155L38.9998 35.4944L28.2845 32.8156L20.9178 30.8065L9.5328 32.8156L8.19339 30.1368Z" fill="#D4FFD3"/>
<path d="M33.2822 31.7643C33.672 31.9313 34.099 31.8385 34.4146 31.5601C34.693 31.3188 36.0109 30.1122 36.5121 29.8152C37.1432 29.444 37.6258 23.1142 37.6258 23.1327C37.6629 22.7615 37.533 22.3902 37.2731 22.1304C34.7301 19.5502 34.6001 19.2161 31.5745 18.8448C30.7391 18.7335 30.1823 18.7706 30.071 18.9562C29.6069 19.6987 31.7044 21.0538 33.3565 21.0538C33.9876 21.0538 35.9366 23.1142 35.751 23.5782C35.6211 23.8938 35.6767 25.9171 35.6582 28.1446L34.8229 28.5715C34.3588 28.8128 33.7834 29.2398 33.5421 29.5553C33.1152 30.0936 33.078 30.0936 32.3541 29.6667C31.6673 29.2583 30.4793 29.2769 30.4793 29.7038C30.4793 30.0751 31.9457 31.2445 32.911 31.6343L33.2822 31.7643Z" fill="black"/>
<path d="M41.9138 15.986C41.9323 15.4106 41.6724 14.8537 41.2269 14.501C40.3916 13.8513 39.4821 13.7771 39.0366 14.2968C37.6259 16.0046 31.9458 15.392 26.2471 12.9046C22.3305 11.1969 17.8012 10.4358 13.9031 10.8257C5.43868 11.661 6.31112 11.8652 7.12786 32.5993L8.0374 33.0634C8.9284 33.5275 9.00261 33.5275 11.5271 32.9706C15.5551 32.0796 22.1263 32.1538 25.9501 33.1005C29.3842 33.9544 30.0896 33.8059 28.6788 32.4694C26.0801 30.0192 15.7222 28.6084 11.5271 30.1491C10.6732 30.4647 9.87511 30.706 9.74518 30.706C9.29968 30.706 10.135 25.1187 9.70802 13.5543C9.72658 13.5543 18.488 11.0855 25.0034 14.4082C28.5303 16.2088 32.8368 17.3782 36.0666 17.3967H39.2037C39.2037 32.488 39.3336 34.0658 38.7953 34.0658C38.554 34.0658 37.0876 33.8987 35.5283 33.6945C32.5027 33.3047 32.0757 33.379 32.6882 34.2514C33.2822 35.0867 37.0133 35.9963 39.3522 36.1076C41.5054 36.219 41.2455 35.9035 41.3383 34.5855C41.4311 32.9706 41.3383 34.2514 41.9138 15.986Z" fill="black"/>
<path d="M13.5876 17.4524C14.163 17.3039 15.1469 16.4686 15.3139 15.986C15.3882 15.7447 16.075 15.7632 18.1911 16.0045C23.4257 16.6171 21.0125 14.4453 20.0102 14.1669C18.8407 13.8327 17.0217 13.9627 14.9427 14.2782C14.5529 14.3339 14.0888 14.6309 13.9217 14.9465C13.7547 15.2621 12.9008 15.7818 12.3068 16.3944C10.6918 18.0093 10.5247 26.0839 12.084 26.3252C13.3648 26.5109 13.7918 26.6779 14.4414 27.2905C15.2396 28.0144 15.3324 27.9402 20.6227 27.9402C21.3466 27.9402 21.7364 26.1582 17.1886 25.9726C15.3138 25.8983 14.9055 25.7869 14.2372 25.2301C13.8103 24.8774 13.3462 24.5804 13.2163 24.5804C12.6409 24.5804 13.0121 17.5824 13.5876 17.4524Z" fill="black"/>
<path d="M24.6507 27.4577C24.8549 27.1978 25.0033 26.1954 25.0033 26.1026C25.0033 26.0098 25.5603 26.0469 26.1728 25.8799C28.4374 25.2673 28.3818 22.5201 26.08 21.2207C25.4489 20.868 23.1471 20.7381 23.4627 19.3274C23.6855 18.2879 24.4651 18.6406 25.3004 19.0489C25.8758 19.3088 26.377 19.6058 26.8782 19.8657C27.7692 20.3297 27.7506 19.1417 27.1566 18.6406C26.7854 18.325 26.2471 18.0094 25.7088 17.7681C25.5974 17.7124 25.8201 17.1741 25.6345 16.7843C25.2446 15.9861 24.131 15.6334 24.131 16.3203C24.131 16.4131 23.9638 17.1556 23.9638 17.1556C23.9453 17.1556 21.9777 16.246 21.2352 18.4364C20.864 19.5315 21.328 21.1279 22.7202 21.5549C23.834 21.9075 25.8573 22.2602 25.7088 23.4111C25.5046 25.0075 22.7944 23.9123 22.7759 23.9123C20.8454 23.4297 19.5275 24.0608 21.8107 25.0817C22.2005 25.2673 23.0729 25.4901 23.2585 25.6571C23.4441 25.8242 23.2399 26.8823 23.2399 27.0679C23.277 27.8846 24.2052 28.0702 24.6507 27.4577Z" fill="black"/>
</svg>
