<svg width="47" height="47" viewBox="0 0 47 47" fill="none" xmlns="http://www.w3.org/2000/svg">
<path d="M17.412 10.0456C19.5551 10.0456 21.4302 13.1709 22.0999 14.7335C26.1179 9.37589 29.467 11.385 32.8155 11.385C35.4943 11.385 37.5034 17.6356 38.1731 20.7609C36.3873 24.1094 31.8779 31.4762 28.1276 34.155C24.3772 36.8338 21.2073 37.057 20.0911 36.8338C20.0911 32.8156 15.6708 33.3513 11.3846 27.4579C7.09853 21.5645 9.59876 14.7335 11.3846 12.0547C12.5008 11.385 15.2689 10.0456 17.412 10.0456Z" fill="#FFD3D3"/>
<path d="M11.7084 30.19C4.3584 20.6912 5.45721 11.6319 14.2479 9.40984C16.9339 8.72613 20.377 9.50752 22.2816 11.2168L23.2584 12.0959L24.699 11.2412C33.0257 6.21102 43.2814 15.49 38.935 24.1098C34.9792 31.9481 22.1107 40.3725 19.4735 36.8562C18.6921 35.8062 19.0828 35.6597 21.1584 36.1725C23.1363 36.6608 32.2687 28.5539 34.5396 24.2807C37.2745 19.1528 36.7373 16.3691 32.3664 12.8528C30.5594 11.4122 27.7513 12.047 25.5537 14.44C23.82 16.2958 22.013 16.4424 20.5235 14.0982C16.2991 7.50521 9.36419 12.7308 11.3421 21.0086C12.1723 24.4272 13.0758 26.1365 16.5189 30.6783C18.863 33.755 18.9362 33.9016 18.1548 34.3167C16.6653 35.1225 14.3456 33.633 11.7084 30.19Z" fill="black"/>
<path d="M29.8514 16.0763C28.6549 15.8565 29.656 14.5135 30.7792 14.9042C31.7071 15.2461 33.0013 15.8077 33.5141 17.2484C34.0758 18.7623 32.9524 20.2274 32.3175 20.0565C31.7559 19.91 31.585 19.2751 31.6583 17.9809C31.7316 16.6868 31.0479 16.2961 29.8514 16.0763Z" fill="black"/>
<path d="M32.5863 23.8167C30.9991 24.183 29.8026 22.9865 30.5107 22.1806C31.0479 21.5946 33.0746 21.5458 33.6607 22.1318C34.1491 22.6446 33.8316 23.5237 32.5863 23.8167Z" fill="black"/>
</svg>
