<svg width="354" height="48" viewBox="0 0 354 48" fill="none" xmlns="http://www.w3.org/2000/svg">
<path d="M3.78564 39.1458C3.78564 43.4302 6.45155 46.346 10.4504 46.346H12.247V34.4449L20.4765 25.9356L31.314 43.0137C32.8209 45.4534 35.139 46.7626 37.5152 46.7626C38.7322 46.7626 39.9493 46.4055 41.1084 45.8105L42.789 44.9179L26.0402 20.2825L41.1084 4.69203H30.5606L12.247 23.1388V4.69203H3.78564V39.1458Z" stroke="#2F80ED" stroke-width="2"/>
<path d="M44.2384 28.4943C44.2384 40.812 54.4963 47.0006 64.8122 47.0006C75.0702 47.0006 85.3281 40.812 85.3281 28.4943V22.2462C85.3281 9.92854 75.0702 3.73994 64.8122 3.73994C54.4963 3.73994 44.2384 9.92854 44.2384 22.2462V28.4943ZM52.6997 22.2462C52.6997 15.6411 58.727 12.3088 64.8122 12.3088C70.8395 12.3088 76.8668 15.6411 76.8668 22.2462V28.4943C76.8668 35.0994 70.8395 38.3723 64.8122 38.3723C58.727 38.3723 52.6997 35.0994 52.6997 28.4943V22.2462Z" stroke="#2F80ED" stroke-width="2"/>
<path d="M94.1132 39.1458C94.1132 43.4302 96.7791 46.346 100.778 46.346H102.575V34.4449L110.804 25.9356L121.642 43.0137C123.148 45.4534 125.467 46.7626 127.843 46.7626C129.06 46.7626 130.277 46.4055 131.436 45.8105L133.117 44.9179L116.368 20.2825L131.436 4.69203H120.888L102.575 23.1388V4.69203H94.1132V39.1458Z" stroke="#2F80ED" stroke-width="2"/>
<path d="M134.566 28.4943C134.566 40.812 144.824 47.0006 155.14 47.0006C165.398 47.0006 175.656 40.812 175.656 28.4943V22.2462C175.656 9.92854 165.398 3.73994 155.14 3.73994C144.824 3.73994 134.566 9.92854 134.566 22.2462V28.4943ZM143.027 22.2462C143.027 15.6411 149.055 12.3088 155.14 12.3088C161.167 12.3088 167.194 15.6411 167.194 22.2462V28.4943C167.194 35.0994 161.167 38.3723 155.14 38.3723C149.055 38.3723 143.027 35.0994 143.027 28.4943V22.2462Z" stroke="#2F80ED" stroke-width="2"/>
<path d="M222.691 44.6799L211.911 29.6844C217.533 27.6017 220.315 22.4842 220.315 17.4858C220.315 11.1782 215.91 4.87055 207.796 4.69203H184.441V39.0863C184.441 43.4302 187.165 46.346 191.164 46.346H192.902V30.2795H202.87L210.81 42.2996C212.491 44.7989 214.983 46.1675 217.591 46.1675C218.692 46.1675 219.851 45.9295 220.952 45.4534L222.691 44.6799ZM192.902 12.1302H205.478C209.477 12.1302 211.448 14.808 211.448 17.4858C211.448 20.1635 209.477 22.8413 205.478 22.8413H192.902V12.1302Z" stroke="#2F80ED" stroke-width="2"/>
<path d="M227.101 28.4943C227.101 40.812 237.359 47.0006 247.675 47.0006C257.933 47.0006 268.191 40.812 268.191 28.4943V22.2462C268.191 9.92854 257.933 3.73994 247.675 3.73994C237.359 3.73994 227.101 9.92854 227.101 22.2462V28.4943ZM235.562 22.2462C235.562 15.6411 241.589 12.3088 247.675 12.3088C253.702 12.3088 259.729 15.6411 259.729 22.2462V28.4943C259.729 35.0994 253.702 38.3723 247.675 38.3723C241.589 38.3723 235.562 35.0994 235.562 28.4943V22.2462Z" stroke="#2F80ED" stroke-width="2"/>
<path d="M275.094 28.4943C275.094 40.812 285.352 47.0006 295.668 47.0006C305.926 47.0006 316.184 40.812 316.184 28.4943V22.2462C316.184 9.92854 305.926 3.73994 295.668 3.73994C285.352 3.73994 275.094 9.92854 275.094 22.2462V28.4943ZM283.556 22.2462C283.556 15.6411 289.583 12.3088 295.668 12.3088C301.695 12.3088 307.723 15.6411 307.723 22.2462V28.4943C307.723 35.0994 301.695 38.3723 295.668 38.3723C289.583 38.3723 283.556 35.0994 283.556 28.4943V22.2462Z" stroke="#2F80ED" stroke-width="2"/>
<path d="M342.471 12.0707L318.246 38.5508V38.8483C318.246 43.3707 321.028 46.346 325.143 46.346H352.961V38.9078H327.345L351.048 12.4278V4.69203H318.768V5.10858C318.768 9.27397 321.376 12.0707 325.259 12.0707H342.471Z" stroke="#2F80ED" stroke-width="2"/>
<path d="M0.696777 36.0556C0.696777 40.34 3.36269 43.2558 7.36155 43.2558H9.15814V31.3547L17.3877 22.8453L28.2252 39.9235C29.732 42.3632 32.0502 43.6723 34.4263 43.6723C35.6434 43.6723 36.8604 43.3153 38.0195 42.7202L39.7002 41.8277L22.9513 17.1923L38.0195 1.60181H27.4718L9.15814 20.0486V1.60181H0.696777V36.0556Z" fill="black"/>
<path d="M41.1495 25.4041C41.1495 37.7218 51.4074 43.9104 61.7234 43.9104C71.9813 43.9104 82.2393 37.7218 82.2393 25.4041V19.156C82.2393 6.83831 71.9813 0.649719 61.7234 0.649719C51.4074 0.649719 41.1495 6.83831 41.1495 19.156V25.4041ZM49.6109 19.156C49.6109 12.5509 55.6381 9.21854 61.7234 9.21854C67.7506 9.21854 73.7779 12.5509 73.7779 19.156V25.4041C73.7779 32.0092 67.7506 35.282 61.7234 35.282C55.6381 35.282 49.6109 32.0092 49.6109 25.4041V19.156Z" fill="black"/>
<path d="M91.0243 36.0556C91.0243 40.34 93.6903 43.2558 97.6891 43.2558H99.4857V31.3547L107.715 22.8453L118.553 39.9235C120.06 42.3632 122.378 43.6723 124.754 43.6723C125.971 43.6723 127.188 43.3153 128.347 42.7202L130.028 41.8277L113.279 17.1923L128.347 1.60181H117.799L99.4857 20.0486V1.60181H91.0243V36.0556Z" fill="black"/>
<path d="M131.477 25.4041C131.477 37.7218 141.735 43.9104 152.051 43.9104C162.309 43.9104 172.567 37.7218 172.567 25.4041V19.156C172.567 6.83831 162.309 0.649719 152.051 0.649719C141.735 0.649719 131.477 6.83831 131.477 19.156V25.4041ZM139.938 19.156C139.938 12.5509 145.966 9.21854 152.051 9.21854C158.078 9.21854 164.105 12.5509 164.105 19.156V25.4041C164.105 32.0092 158.078 35.282 152.051 35.282C145.966 35.282 139.938 32.0092 139.938 25.4041V19.156Z" fill="black"/>
<path d="M219.602 41.5896L208.822 26.5942C214.444 24.5115 217.226 19.394 217.226 14.3955C217.226 8.08793 212.821 1.78033 204.708 1.60181H181.352V35.9961C181.352 40.34 184.076 43.2558 188.075 43.2558H189.813V27.1893H199.781L207.721 39.2094C209.402 41.7086 211.894 43.0773 214.502 43.0773C215.603 43.0773 216.762 42.8393 217.863 42.3632L219.602 41.5896ZM189.813 9.04002H202.389C206.388 9.04002 208.359 11.7178 208.359 14.3955C208.359 17.0733 206.388 19.751 202.389 19.751H189.813V9.04002Z" fill="black"/>
<path d="M224.012 25.4041C224.012 37.7218 234.27 43.9104 244.586 43.9104C254.844 43.9104 265.102 37.7218 265.102 25.4041V19.156C265.102 6.83831 254.844 0.649719 244.586 0.649719C234.27 0.649719 224.012 6.83831 224.012 19.156V25.4041ZM232.473 19.156C232.473 12.5509 238.501 9.21854 244.586 9.21854C250.613 9.21854 256.64 12.5509 256.64 19.156V25.4041C256.64 32.0092 250.613 35.282 244.586 35.282C238.501 35.282 232.473 32.0092 232.473 25.4041V19.156Z" fill="black"/>
<path d="M272.005 25.4041C272.005 37.7218 282.263 43.9104 292.579 43.9104C302.837 43.9104 313.095 37.7218 313.095 25.4041V19.156C313.095 6.83831 302.837 0.649719 292.579 0.649719C282.263 0.649719 272.005 6.83831 272.005 19.156V25.4041ZM280.467 19.156C280.467 12.5509 286.494 9.21854 292.579 9.21854C298.607 9.21854 304.634 12.5509 304.634 19.156V25.4041C304.634 32.0092 298.607 35.282 292.579 35.282C286.494 35.282 280.467 32.0092 280.467 25.4041V19.156Z" fill="black"/>
<path d="M339.382 8.98052L315.157 35.4605V35.7581C315.157 40.2805 317.939 43.2558 322.054 43.2558H349.872V35.8176H324.256L347.959 9.33755V1.60181H315.679V2.01835C315.679 6.18375 318.287 8.98052 322.17 8.98052H339.382Z" fill="black"/>
</svg>
